<svg version="1.1" viewBox="0.0 0.0 128.0 128.0" fill="none" stroke="none" stroke-linecap="square" stroke-miterlimit="10" xmlns:xlink="http://www.w3.org/1999/xlink" xmlns="http://www.w3.org/2000/svg"><clipPath id="p.0"><path d="m0 0l128.0 0l0 128.0l-128.0 0l0 -128.0z" clip-rule="nonzero"/></clipPath><g clip-path="url(#p.0)"><path fill="#000000" fill-opacity="0.0" d="m0 0l128.0 0l0 128.0l-128.0 0z" fill-rule="evenodd"/><path fill="#000000" fill-opacity="0.0" d="m0 0l128.0 0l0 128.0l-128.0 0z" fill-rule="evenodd"/><path fill="#000000" d="m28.732697 123.65938q-4.1875 0 -6.796875 -1.421875q-2.609375 -1.40625 -2.609375 -4.234375q0 -1.703125 1.640625 -3.234375q1.640625 -1.53125 2.78125 -1.53125q0.90625 0 1.703125 0.953125q0.78125 0.96875 1.921875 2.21875q1.015625 1.140625 2.4375 1.921875q1.40625 0.796875 3.453125 0.796875q2.15625 0 3.75 -1.25q1.578125 -1.234375 3.109375 -4.53125q1.53125 -3.28125 3.34375 -9.515625l15.1875 -51.453125q0.671875 -2.03125 -1.59375 -2.03125l-7.03125 0.109375q-0.78125 0 -1.125 -0.390625q-0.34375 -0.40625 -0.34375 -0.96875q0 -0.90625 0.671875 -1.859375q0.6875 -0.96875 1.484375 -1.09375l7.9375 -0.453125q1.578125 -0.21875 2.15625 -2.265625l0.90625 -3.625q2.71875 -10.765625 7.296875 -17.109375q4.59375 -6.34375 9.640625 -9.125q5.046875 -2.78125 9.0 -2.78125q5.0 0 7.828125 2.21875q2.828125 2.203125 2.828125 5.71875q0 2.828125 -1.53125 4.3125q-1.53125 1.46875 -3.109375 1.46875q-0.796875 0 -1.484375 -1.296875q-0.671875 -1.3125 -1.578125 -3.125q-1.015625 -2.265625 -2.609375 -3.453125q-1.578125 -1.1875 -4.078125 -1.1875q-3.171875 0 -5.390625 1.46875q-2.203125 1.46875 -4.015625 5.4375q-1.8125 3.96875 -4.078125 11.453125q-0.671875 2.15625 -1.1875 4.140625q-0.515625 1.96875 -1.1875 4.234375q-0.234375 0.796875 -0.40625 1.25q-0.171875 0.453125 -0.171875 1.03125q0 0.5625 0.34375 0.796875q0.34375 0.21875 0.796875 0.21875q3.40625 0 6.515625 -0.171875q3.109375 -0.171875 5.953125 -0.171875q0.796875 0 0.796875 1.25q0 0.453125 -0.40625 1.25q-0.390625 0.78125 -1.125 1.40625q-0.734375 0.625 -1.765625 0.625l-10.3125 0.109375q-1.125 0 -1.875 0.40625q-0.734375 0.390625 -0.953125 1.40625q-3.96875 12.8125 -7.71875 25.84375q-3.734375 13.03125 -7.015625 25.84375q-1.140625 4.53125 -3.796875 8.265625q-2.65625 3.75 -6.0 6.46875q-3.34375 2.71875 -6.578125 4.1875q-3.234375 1.46875 -5.609375 1.46875z" fill-rule="nonzero"/></g></svg>